<?xml version="1.0" standalone="no"?>
<!DOCTYPE svg PUBLIC "-//W3C//DTD SVG 20010904//EN"
 "http://www.w3.org/TR/2001/REC-SVG-20010904/DTD/svg10.dtd">
<svg version="1.0" xmlns="http://www.w3.org/2000/svg"
 width="500.000000pt" height="300.000000pt" viewBox="0 0 500.000000 300.000000"
 preserveAspectRatio="xMidYMid meet">

<g transform="translate(0.000000,300.000000) scale(0.100000,-0.100000)"
fill="#000000" stroke="none">
<path d="M2260 2031 c0 -20 6 -31 17 -33 12 -2 34 -55 78 -188 l62 -185 45 -3
46 -3 20 53 c11 29 39 113 63 187 36 109 48 135 67 142 17 6 22 16 20 32 -3
20 -9 22 -80 25 l-78 3 0 -31 c0 -19 5 -30 14 -30 15 0 10 -25 -47 -209 l-22
-75 -38 127 c-21 70 -40 134 -43 142 -4 9 0 15 10 15 11 0 16 9 16 30 l0 30
-75 0 -75 0 0 -29z"/>
<path d="M2822 2046 c-40 -19 -79 -60 -98 -105 -19 -45 -18 -162 1 -209 55
-130 210 -159 311 -58 94 93 84 266 -20 350 -30 25 -47 31 -99 33 -39 2 -74
-2 -95 -11z m145 -78 c34 -38 43 -64 43 -130 0 -101 -40 -157 -112 -158 -56 0
-108 77 -108 162 0 42 21 100 45 124 33 33 103 34 132 2z"/>
<path d="M3134 2045 c-9 -23 3 -45 26 -45 19 0 20 -6 20 -159 l0 -159 -25 -6
c-18 -5 -25 -13 -25 -31 0 -25 1 -25 90 -25 l90 0 0 26 c0 17 -6 28 -20 31
-19 5 -20 14 -20 164 0 152 1 159 20 159 16 0 20 7 20 30 l0 30 -85 0 c-67 0
-87 -3 -91 -15z"/>
<path d="M3465 2046 c-72 -33 -115 -111 -115 -209 0 -115 64 -200 166 -221 43
-9 123 11 162 40 29 23 33 30 30 67 -3 39 -5 42 -35 45 -29 3 -33 0 -33 -20 0
-29 -9 -42 -37 -57 -56 -29 -133 3 -153 64 -7 21 -10 67 -8 106 3 59 8 72 33
99 25 26 36 30 81 30 43 0 56 -4 68 -22 9 -12 16 -30 16 -40 0 -14 8 -18 35
-18 35 0 35 0 35 45 0 41 -3 47 -41 72 -50 33 -154 43 -204 19z"/>
<path d="M3750 2030 c0 -23 4 -30 20 -30 19 0 20 -7 20 -159 0 -150 -1 -159
-20 -164 -14 -3 -20 -14 -20 -31 l0 -26 90 0 c89 0 90 0 90 25 0 18 -7 26 -25
31 l-25 6 0 159 0 159 26 0 c22 0 25 4 22 28 -3 27 -3 27 -90 30 l-88 3 0 -31z"/>
<path d="M3957 2053 c-4 -3 -7 -30 -7 -60 l0 -53 34 0 c28 0 35 4 38 23 2 18
10 23 41 25 l37 3 0 -154 c0 -146 -1 -155 -20 -160 -14 -3 -20 -14 -20 -31 l0
-26 91 0 90 0 -3 28 c-2 19 -9 28 -25 30 -23 3 -23 5 -23 158 l0 154 39 0 c33
0 40 -4 45 -25 5 -20 13 -25 36 -25 30 0 30 0 30 60 l0 60 -188 0 c-104 0
-192 -3 -195 -7z"/>
<path d="M4370 2031 c0 -19 6 -30 18 -33 11 -3 41 -50 75 -114 46 -87 57 -118
57 -155 0 -42 -3 -48 -25 -53 -18 -5 -25 -13 -25 -31 0 -25 1 -25 90 -25 l90
0 0 26 c0 17 -6 28 -20 31 -17 4 -20 14 -20 55 0 41 10 68 58 158 39 75 62
110 75 110 12 0 17 8 17 30 l0 30 -80 0 -80 0 0 -30 c0 -20 5 -30 15 -30 20 0
19 -5 -20 -80 l-33 -65 -31 68 c-36 80 -35 77 -16 77 10 0 15 10 15 30 l0 30
-80 0 -80 0 0 -29z"/>
<path d="M2489 1373 c-6 -16 -39 -102 -74 -193 -35 -91 -68 -178 -74 -193 -11
-28 -10 -28 21 -25 28 3 33 8 48 53 l17 50 95 3 95 3 18 -56 c17 -49 22 -55
47 -55 15 0 28 3 28 6 0 4 -37 103 -82 220 -74 195 -83 214 -105 214 -16 0
-27 -8 -34 -27z m100 -240 c1 -9 -19 -13 -69 -13 -38 0 -70 2 -70 4 0 4 43
122 62 170 11 28 12 27 44 -60 18 -49 33 -95 33 -101z"/>
<path d="M2851 1383 c-18 -9 -45 -34 -59 -56 -22 -34 -27 -53 -30 -131 -4 -85
-2 -95 25 -145 36 -69 83 -96 165 -94 65 1 135 34 144 68 3 11 4 50 2 85 l-3
65 -77 3 c-78 3 -78 3 -78 -23 0 -23 3 -25 50 -25 l50 0 0 -51 c0 -48 -1 -51
-37 -66 -23 -9 -52 -13 -76 -10 -75 10 -107 65 -107 182 0 115 35 165 115 165
46 0 82 -21 95 -56 11 -29 60 -35 60 -8 0 29 -40 81 -74 98 -44 21 -122 20
-165 -1z"/>
<path d="M3197 1394 c-4 -4 -7 -103 -7 -221 l0 -213 140 0 140 0 0 25 0 25
-110 0 -110 0 0 75 0 75 95 0 c95 0 95 0 95 25 0 25 0 25 -95 25 l-95 0 0 70
0 70 111 0 c109 0 110 0 107 23 -3 21 -7 22 -134 25 -71 1 -133 -1 -137 -4z"/>
<path d="M3540 1180 l0 -220 30 0 30 0 2 163 3 163 105 -162 c100 -155 107
-163 138 -163 l32 -1 -2 218 -3 217 -27 3 -28 3 0 -167 c0 -141 -2 -166 -13
-154 -8 8 -58 84 -112 168 -89 136 -102 152 -127 152 l-28 0 0 -220z"/>
<path d="M4064 1386 c-71 -31 -112 -135 -100 -249 12 -115 73 -180 170 -180
82 0 142 43 160 116 6 24 4 27 -21 27 -23 0 -31 -7 -45 -40 -38 -92 -169 -74
-198 28 -23 84 -6 196 35 238 19 19 35 24 73 24 52 0 83 -21 97 -67 5 -17 14
-23 36 -23 27 0 30 3 24 23 -30 99 -134 145 -231 103z"/>
<path d="M4340 1390 c0 -5 32 -66 70 -136 l70 -126 0 -84 0 -84 30 0 30 0 0
83 1 82 74 135 c68 122 73 135 54 138 -37 6 -48 -6 -102 -114 l-54 -107 -59
111 c-53 101 -62 112 -86 112 -16 0 -28 -4 -28 -10z"/>
</g>
</svg>
